<?xml version="1.0" standalone="no"?>
<!DOCTYPE svg PUBLIC "-//W3C//DTD SVG 20010904//EN"
 "http://www.w3.org/TR/2001/REC-SVG-20010904/DTD/svg10.dtd">
<svg version="1.0" xmlns="http://www.w3.org/2000/svg"
 width="180.000000pt" height="180.000000pt" viewBox="0 0 180.000000 180.000000"
 preserveAspectRatio="xMidYMid meet">
<metadata>
Created by potrace 1.11, written by Peter Selinger 2001-2013
</metadata>
<g transform="translate(0.000000,180.000000) scale(0.100000,-0.100000)"
fill="#000000" stroke="none">
<path d="M519 1760 c-128 -109 -211 -340 -196 -540 l6 -80 -24 16 c-37 24 -77
15 -87 -21 -15 -49 -1 -210 21 -261 46 -104 115 -171 163 -159 19 4 28 -3 53
-47 17 -28 69 -91 118 -139 l87 -87 -134 -4 c-131 -3 -135 -4 -177 -33 -71
-51 -83 -86 -87 -257 l-3 -148 630 0 631 0 0 118 c0 182 -32 266 -117 308 -30
15 -65 20 -165 22 -71 2 -128 4 -128 5 0 1 39 43 88 92 48 50 98 111 111 136
24 45 26 46 61 42 31 -4 43 0 73 27 20 18 53 65 73 106 35 70 37 78 38 184 0
92 -2 113 -17 127 -17 17 -19 17 -55 -2 l-37 -21 -1 126 c0 190 -45 330 -139
441 -55 64 -91 89 -129 89 -30 0 -29 0 15 -28 103 -67 186 -199 214 -343 14
-77 20 -263 7 -255 -4 2 -7 -19 -8 -48 -1 -28 -18 -118 -38 -199 -48 -197 -79
-253 -210 -382 -130 -128 -249 -175 -354 -141 -153 51 -350 265 -382 416 -73
342 -83 452 -56 590 30 152 118 300 214 361 45 28 45 29 16 29 -19 0 -44 -13
-75 -40z m1006 -663 c10 -76 -9 -189 -39 -241 -45 -77 -76 -107 -105 -104 -47
5 -19 68 34 73 41 5 53 21 49 66 -2 22 -8 48 -14 59 -14 27 -12 34 5 20 8 -7
15 -21 15 -31 0 -10 5 -21 10 -24 22 -13 9 47 -15 71 -14 14 -25 29 -25 34 0
14 24 12 38 -2 6 -6 14 -9 17 -6 4 3 -4 16 -16 27 l-23 21 22 22 22 22 0 -37
c0 -20 5 -37 10 -37 6 0 10 16 10 35 0 50 -25 57 -61 17 -38 -42 -46 -93 -24
-142 17 -37 17 -41 1 -65 -17 -27 -42 -42 -52 -32 -3 3 6 59 20 124 23 107 29
121 61 151 19 17 39 32 44 32 5 0 13 -24 16 -53z m-1216 16 c19 -18 31 -42 35
-68 l7 -40 -19 40 c-37 79 -82 87 -82 15 0 -25 4 -39 10 -35 6 3 7 17 4 30 -7
30 13 42 31 19 12 -17 11 -21 -6 -38 -23 -21 -17 -35 6 -16 11 10 19 10 27 2
8 -8 3 -17 -17 -34 -21 -18 -26 -30 -23 -53 l5 -30 7 32 c5 17 14 34 22 37 18
7 18 2 0 -33 -17 -33 -14 -100 5 -112 8 -5 24 -9 35 -9 24 0 39 -15 47 -47 9
-37 -35 -30 -72 12 -59 67 -82 129 -88 231 -3 50 -3 99 0 108 9 24 33 19 66
-11z m71 -256 c0 -24 -19 -17 -43 15 -19 26 -19 27 -1 72 l19 46 12 -58 c7
-31 12 -65 13 -75z m685 -504 c-30 -46 -135 -71 -245 -58 -77 9 -122 38 -134
88 -5 20 -7 39 -5 41 3 3 36 -11 74 -30 90 -46 150 -44 251 7 l69 34 3 -28 c2
-16 -4 -40 -13 -54z"/>
<path d="M480 1257 l-35 -22 100 -6 c55 -3 116 -11 135 -17 52 -17 110 -21
110 -8 0 6 5 4 10 -4 9 -13 10 -13 9 0 0 8 -4 24 -9 35 l-9 20 -1 -20 c-1 -18
-1 -19 -11 -2 -15 26 -30 20 -23 -10 l6 -28 -14 25 c-11 19 -29 28 -83 42 -98
23 -143 22 -185 -5z"/>
<path d="M1190 1273 c-14 -2 -59 -11 -100 -20 -41 -10 -79 -17 -84 -18 -5 0
-11 -6 -14 -14 -3 -8 0 -11 6 -7 6 4 8 -1 5 -13 -5 -18 2 -17 109 10 81 22
127 29 162 25 l49 -5 -23 24 c-23 25 -47 29 -110 18z"/>
<path d="M960 1230 c-11 -11 -20 -28 -19 -37 0 -13 2 -14 6 -4 4 8 8 10 12 3
4 -6 11 5 17 24 13 40 11 41 -16 14z"/>
<path d="M553 1169 c-37 -11 -54 -29 -21 -23 l23 5 -22 -17 c-13 -9 -23 -20
-23 -24 0 -15 88 -31 159 -28 l74 3 -29 35 c-16 19 -23 31 -16 26 6 -4 12 -3
12 2 0 10 -77 33 -107 31 -10 0 -32 -5 -50 -10z m117 -43 c0 -11 -19 -15 -25
-6 -3 5 1 10 9 10 9 0 16 -2 16 -4z m37 -28 c-20 -13 -27 -9 -27 12 0 18 3 19
20 8 14 -9 16 -14 7 -20z m-117 6 c0 -11 -5 -14 -16 -10 -9 3 -20 6 -25 6 -6
0 -7 5 -4 10 10 16 45 12 45 -6z"/>
<path d="M1063 1163 c-13 -2 -23 -8 -23 -13 0 -5 8 -7 18 -3 9 3 14 3 10 -1
-4 -5 -3 -19 2 -32 10 -25 4 -29 -24 -18 -15 6 -15 8 1 20 10 7 13 14 7 14 -6
0 -19 -9 -28 -19 -17 -18 -16 -19 2 -25 39 -13 157 -11 189 3 39 16 35 27 -21
52 -22 10 -35 19 -28 19 7 0 27 -7 43 -16 17 -8 33 -13 36 -10 3 2 -9 12 -26
20 -28 15 -105 19 -158 9z m87 -43 c0 -5 -4 -10 -9 -10 -6 0 -13 5 -16 10 -3
6 1 10 9 10 9 0 16 -4 16 -10z m51 -10 c5 0 9 -4 9 -10 0 -5 -11 -10 -25 -10
-16 0 -25 6 -25 16 0 11 5 14 16 10 9 -3 20 -6 25 -6z"/>
<path d="M790 1073 c0 -16 -3 -82 -6 -148 l-6 -120 31 -29 c17 -17 31 -25 31
-18 0 6 -5 14 -11 18 -8 5 -8 9 1 14 9 5 6 10 -10 15 -23 7 -23 7 -16 151 5
99 4 144 -3 144 -6 0 -11 -12 -11 -27z"/>
<path d="M880 801 c0 -4 11 -6 25 -3 14 2 25 6 25 8 0 2 -11 4 -25 4 -14 0
-25 -4 -25 -9z"/>
<path d="M720 669 c0 -17 190 -26 284 -13 88 12 46 19 -119 19 -91 0 -165 -3
-165 -6z"/>
<path d="M810 590 c0 -6 27 -10 60 -10 33 0 60 4 60 10 0 6 -27 10 -60 10 -33
0 -60 -4 -60 -10z"/>
</g>
</svg>
